<mxfile host="app.diagrams.net" modified="2024-05-10T16:41:18.269Z" agent="Mozilla/5.0 (X11; Ubuntu; Linux x86_64; rv:125.0) Gecko/20100101 Firefox/125.0" etag="oCv9V8KXQrPBZD56w9l_" version="24.3.1" type="device">
  <diagram name="Page-1" id="FL82TSBoPm-eaRzAIv_8">
    <mxGraphModel dx="1059" dy="1589" grid="1" gridSize="10" guides="1" tooltips="1" connect="1" arrows="1" fold="1" page="1" pageScale="1" pageWidth="850" pageHeight="1100" math="0" shadow="0">
      <root>
        <mxCell id="0" />
        <mxCell id="1" parent="0" />
        <mxCell id="P8g3ugf__SappCPVDkcM-5" value="&lt;font style=&quot;font-size: 9px;&quot;&gt;Mobile User&lt;/font&gt;" style="rounded=0;whiteSpace=wrap;html=1;fillColor=#FF8000;" parent="1" vertex="1">
          <mxGeometry x="40" y="180" width="70" height="20" as="geometry" />
        </mxCell>
        <mxCell id="hxlqznGmigR07-VnnOmS-10" style="edgeStyle=orthogonalEdgeStyle;rounded=0;orthogonalLoop=1;jettySize=auto;html=1;" parent="1" source="jU4diwvXnVPjl-JNsbiU-17" edge="1">
          <mxGeometry relative="1" as="geometry">
            <mxPoint x="930" y="180" as="targetPoint" />
            <Array as="points">
              <mxPoint x="630" y="120" />
              <mxPoint x="930" y="120" />
              <mxPoint x="930" y="180" />
            </Array>
          </mxGeometry>
        </mxCell>
        <mxCell id="jU4diwvXnVPjl-JNsbiU-17" value="&lt;div&gt;&lt;b&gt;&lt;font style=&quot;font-size: 9px;&quot;&gt;Authorizations Request Manager&lt;/font&gt;&lt;/b&gt;&lt;/div&gt;&lt;div&gt;&lt;font style=&quot;font-size: 9px;&quot;&gt;&amp;nbsp;(also creates named pipes)&lt;/font&gt;&lt;br&gt;&lt;/div&gt;&lt;br&gt;&lt;div&gt;&lt;br&gt;&lt;/div&gt;&lt;div&gt;&lt;br&gt;&lt;/div&gt;&lt;div&gt;&lt;br&gt;&lt;/div&gt;&lt;div&gt;&lt;br&gt;&lt;/div&gt;&lt;div&gt;&lt;br&gt;&lt;/div&gt;&lt;div&gt;&lt;br&gt;&lt;/div&gt;" style="rounded=0;whiteSpace=wrap;html=1;fillColor=#FF8000;" parent="1" vertex="1">
          <mxGeometry x="272" y="135.13" width="370" height="104.87" as="geometry" />
        </mxCell>
        <mxCell id="jU4diwvXnVPjl-JNsbiU-7" value="" style="edgeStyle=none;html=1;strokeColor=#808080;endArrow=block;endSize=10;dashed=0;verticalAlign=bottom;strokeWidth=2;rounded=0;entryX=0;entryY=0.5;entryDx=0;entryDy=0;" parent="1" target="jU4diwvXnVPjl-JNsbiU-19" edge="1">
          <mxGeometry width="160" relative="1" as="geometry">
            <mxPoint x="110" y="189.8" as="sourcePoint" />
            <mxPoint x="240" y="190" as="targetPoint" />
          </mxGeometry>
        </mxCell>
        <mxCell id="jU4diwvXnVPjl-JNsbiU-9" value="USER_PIPE" style="edgeLabel;html=1;align=center;verticalAlign=middle;resizable=0;points=[];" parent="jU4diwvXnVPjl-JNsbiU-7" vertex="1" connectable="0">
          <mxGeometry x="-0.1631" relative="1" as="geometry">
            <mxPoint as="offset" />
          </mxGeometry>
        </mxCell>
        <mxCell id="jU4diwvXnVPjl-JNsbiU-12" value="&lt;font style=&quot;font-size: 24px;&quot;&gt;*&lt;/font&gt;" style="text;html=1;align=center;verticalAlign=middle;resizable=0;points=[];autosize=1;strokeColor=none;fillColor=none;" parent="1" vertex="1">
          <mxGeometry x="100" y="170" width="30" height="40" as="geometry" />
        </mxCell>
        <mxCell id="jU4diwvXnVPjl-JNsbiU-19" value="&lt;b&gt;&lt;font style=&quot;font-size: 9px;&quot;&gt;Receiver&lt;/font&gt;&lt;/b&gt;" style="rounded=0;whiteSpace=wrap;html=1;fillColor=#73FAFF;" parent="1" vertex="1">
          <mxGeometry x="290" y="180" width="60" height="20" as="geometry" />
        </mxCell>
        <mxCell id="jU4diwvXnVPjl-JNsbiU-44" style="edgeStyle=orthogonalEdgeStyle;rounded=0;orthogonalLoop=1;jettySize=auto;html=1;entryX=0;entryY=0.5;entryDx=0;entryDy=0;" parent="1" source="jU4diwvXnVPjl-JNsbiU-24" target="jU4diwvXnVPjl-JNsbiU-34" edge="1">
          <mxGeometry relative="1" as="geometry" />
        </mxCell>
        <mxCell id="jU4diwvXnVPjl-JNsbiU-24" value="" style="shape=cylinder3;whiteSpace=wrap;html=1;boundedLbl=1;backgroundOutline=1;size=15;rotation=90;" parent="1" vertex="1">
          <mxGeometry x="451.99" y="99.53" width="20" height="150.95" as="geometry" />
        </mxCell>
        <mxCell id="jU4diwvXnVPjl-JNsbiU-28" value="&lt;div&gt;&lt;b&gt;SHARED&lt;/b&gt;&lt;/div&gt;&lt;div&gt;&lt;b&gt;MEMORY&lt;br&gt;&lt;/b&gt;&lt;/div&gt;" style="shape=datastore;whiteSpace=wrap;html=1;" parent="1" vertex="1">
          <mxGeometry x="1080" y="129.08" width="90" height="122.55" as="geometry" />
        </mxCell>
        <mxCell id="jU4diwvXnVPjl-JNsbiU-30" value="&lt;font style=&quot;font-size: 10px;&quot;&gt;Video Streaming Queue&lt;/font&gt;" style="text;strokeColor=none;fillColor=none;html=1;fontSize=24;fontStyle=1;verticalAlign=middle;align=center;" parent="1" vertex="1">
          <mxGeometry x="399" y="151.75" width="101" height="40" as="geometry" />
        </mxCell>
        <mxCell id="jU4diwvXnVPjl-JNsbiU-47" style="edgeStyle=orthogonalEdgeStyle;rounded=0;orthogonalLoop=1;jettySize=auto;html=1;entryX=0;entryY=0.5;entryDx=0;entryDy=0;" parent="1" source="jU4diwvXnVPjl-JNsbiU-45" target="jU4diwvXnVPjl-JNsbiU-34" edge="1">
          <mxGeometry relative="1" as="geometry" />
        </mxCell>
        <mxCell id="jU4diwvXnVPjl-JNsbiU-45" value="" style="shape=cylinder3;whiteSpace=wrap;html=1;boundedLbl=1;backgroundOutline=1;size=15;rotation=90;" parent="1" vertex="1">
          <mxGeometry x="451.99" y="128.53" width="20" height="150.95" as="geometry" />
        </mxCell>
        <mxCell id="jU4diwvXnVPjl-JNsbiU-32" value="&lt;font style=&quot;font-size: 10px;&quot;&gt;Other Services Queue&lt;br&gt;&lt;/font&gt;" style="text;strokeColor=none;fillColor=none;html=1;fontSize=24;fontStyle=1;verticalAlign=middle;align=center;" parent="1" vertex="1">
          <mxGeometry x="399" y="181.63" width="100" height="40" as="geometry" />
        </mxCell>
        <mxCell id="dbfNOSFVllEaUx88C3-K-10" style="edgeStyle=orthogonalEdgeStyle;rounded=0;orthogonalLoop=1;jettySize=auto;html=1;entryX=0.5;entryY=0;entryDx=0;entryDy=0;entryPerimeter=0;" parent="1" source="jU4diwvXnVPjl-JNsbiU-34" target="jU4diwvXnVPjl-JNsbiU-77" edge="1">
          <mxGeometry relative="1" as="geometry">
            <mxPoint x="1080" y="-40" as="targetPoint" />
            <Array as="points">
              <mxPoint x="620" y="-50" />
              <mxPoint x="1400" y="-50" />
              <mxPoint x="1400" y="20" />
              <mxPoint x="1075" y="20" />
            </Array>
          </mxGeometry>
        </mxCell>
        <mxCell id="hxlqznGmigR07-VnnOmS-8" style="edgeStyle=orthogonalEdgeStyle;rounded=0;orthogonalLoop=1;jettySize=auto;html=1;" parent="1" source="jU4diwvXnVPjl-JNsbiU-34" target="wo505oq4jTNtcLupM2g--77" edge="1">
          <mxGeometry relative="1" as="geometry">
            <mxPoint x="690" y="200" as="targetPoint" />
            <Array as="points">
              <mxPoint x="660" y="200" />
              <mxPoint x="660" y="270" />
            </Array>
          </mxGeometry>
        </mxCell>
        <mxCell id="jU4diwvXnVPjl-JNsbiU-34" value="&lt;b&gt;&lt;font style=&quot;font-size: 9px;&quot;&gt;Sender&lt;/font&gt;&lt;/b&gt;" style="rounded=0;whiteSpace=wrap;html=1;fillColor=#73FAFF;" parent="1" vertex="1">
          <mxGeometry x="570" y="180" width="60" height="20" as="geometry" />
        </mxCell>
        <mxCell id="jU4diwvXnVPjl-JNsbiU-37" style="edgeStyle=orthogonalEdgeStyle;rounded=0;orthogonalLoop=1;jettySize=auto;html=1;entryX=0.5;entryY=1;entryDx=0;entryDy=0;entryPerimeter=0;" parent="1" source="jU4diwvXnVPjl-JNsbiU-19" target="jU4diwvXnVPjl-JNsbiU-24" edge="1">
          <mxGeometry relative="1" as="geometry" />
        </mxCell>
        <mxCell id="jU4diwvXnVPjl-JNsbiU-46" style="edgeStyle=orthogonalEdgeStyle;rounded=0;orthogonalLoop=1;jettySize=auto;html=1;entryX=0.5;entryY=1;entryDx=0;entryDy=0;entryPerimeter=0;" parent="1" source="jU4diwvXnVPjl-JNsbiU-19" target="jU4diwvXnVPjl-JNsbiU-45" edge="1">
          <mxGeometry relative="1" as="geometry" />
        </mxCell>
        <mxCell id="jU4diwvXnVPjl-JNsbiU-69" style="edgeStyle=orthogonalEdgeStyle;rounded=0;orthogonalLoop=1;jettySize=auto;html=1;entryX=0.5;entryY=1;entryDx=0;entryDy=0;entryPerimeter=0;" parent="1" source="jU4diwvXnVPjl-JNsbiU-48" target="jU4diwvXnVPjl-JNsbiU-61" edge="1">
          <mxGeometry relative="1" as="geometry">
            <mxPoint x="786" y="350" as="targetPoint" />
            <Array as="points">
              <mxPoint x="850" y="200" />
              <mxPoint x="850" y="340" />
              <mxPoint x="607" y="340" />
            </Array>
          </mxGeometry>
        </mxCell>
        <mxCell id="dbfNOSFVllEaUx88C3-K-12" style="edgeStyle=orthogonalEdgeStyle;rounded=0;orthogonalLoop=1;jettySize=auto;html=1;entryX=0.5;entryY=0;entryDx=0;entryDy=0;entryPerimeter=0;" parent="1" source="jU4diwvXnVPjl-JNsbiU-48" target="jU4diwvXnVPjl-JNsbiU-77" edge="1">
          <mxGeometry relative="1" as="geometry">
            <mxPoint x="1070" y="-20" as="targetPoint" />
            <Array as="points">
              <mxPoint x="955" y="150" />
              <mxPoint x="750" y="150" />
              <mxPoint x="750" y="-10" />
              <mxPoint x="1075" y="-10" />
            </Array>
          </mxGeometry>
        </mxCell>
        <mxCell id="jU4diwvXnVPjl-JNsbiU-49" value="&lt;font style=&quot;font-size: 24px;&quot;&gt;*&lt;/font&gt;" style="text;html=1;align=center;verticalAlign=middle;resizable=0;points=[];autosize=1;strokeColor=none;fillColor=none;" parent="1" vertex="1">
          <mxGeometry x="880" y="159.75" width="30" height="40" as="geometry" />
        </mxCell>
        <mxCell id="jU4diwvXnVPjl-JNsbiU-52" value="&lt;b&gt;&lt;font style=&quot;font-size: 9px;&quot;&gt;BackOffice User&lt;/font&gt;&lt;/b&gt;" style="rounded=0;whiteSpace=wrap;html=1;fillColor=#FF8000;" parent="1" vertex="1">
          <mxGeometry x="284" y="20" width="76" height="20" as="geometry" />
        </mxCell>
        <mxCell id="jU4diwvXnVPjl-JNsbiU-53" value="" style="edgeStyle=none;html=1;strokeColor=#808080;endArrow=block;endSize=10;dashed=0;verticalAlign=bottom;strokeWidth=2;rounded=0;entryX=0.5;entryY=0;entryDx=0;entryDy=0;" parent="1" target="jU4diwvXnVPjl-JNsbiU-19" edge="1">
          <mxGeometry width="160" relative="1" as="geometry">
            <mxPoint x="320" y="40" as="sourcePoint" />
            <mxPoint x="306.76" y="110" as="targetPoint" />
          </mxGeometry>
        </mxCell>
        <mxCell id="jU4diwvXnVPjl-JNsbiU-54" value="BACK_PIPE" style="edgeLabel;html=1;align=center;verticalAlign=middle;resizable=0;points=[];" parent="jU4diwvXnVPjl-JNsbiU-53" vertex="1" connectable="0">
          <mxGeometry x="-0.1631" relative="1" as="geometry">
            <mxPoint as="offset" />
          </mxGeometry>
        </mxCell>
        <mxCell id="jU4diwvXnVPjl-JNsbiU-57" value="1" style="text;html=1;align=center;verticalAlign=middle;resizable=0;points=[];autosize=1;strokeColor=none;fillColor=none;" parent="1" vertex="1">
          <mxGeometry x="310" y="35" width="30" height="30" as="geometry" />
        </mxCell>
        <mxCell id="jU4diwvXnVPjl-JNsbiU-65" style="edgeStyle=orthogonalEdgeStyle;rounded=0;orthogonalLoop=1;jettySize=auto;html=1;entryX=0.5;entryY=1;entryDx=0;entryDy=0;entryPerimeter=0;" parent="1" target="jU4diwvXnVPjl-JNsbiU-61" edge="1">
          <mxGeometry relative="1" as="geometry">
            <mxPoint x="610" y="310" as="targetPoint" />
            <mxPoint x="1290" y="200" as="sourcePoint" />
            <Array as="points">
              <mxPoint x="1290" y="200" />
              <mxPoint x="1290" y="360" />
              <mxPoint x="607" y="360" />
            </Array>
          </mxGeometry>
        </mxCell>
        <mxCell id="jU4diwvXnVPjl-JNsbiU-60" style="edgeStyle=orthogonalEdgeStyle;rounded=0;orthogonalLoop=1;jettySize=auto;html=1;exitX=0.182;exitY=0.825;exitDx=0;exitDy=0;exitPerimeter=0;" parent="1" source="wo505oq4jTNtcLupM2g--2" edge="1">
          <mxGeometry relative="1" as="geometry">
            <mxPoint x="1030" y="190.74999999999977" as="sourcePoint" />
            <mxPoint x="1170" y="192" as="targetPoint" />
            <Array as="points">
              <mxPoint x="1230" y="196" />
              <mxPoint x="1230" y="192" />
            </Array>
          </mxGeometry>
        </mxCell>
        <mxCell id="jU4diwvXnVPjl-JNsbiU-75" style="edgeStyle=orthogonalEdgeStyle;rounded=0;orthogonalLoop=1;jettySize=auto;html=1;entryX=0.429;entryY=1.02;entryDx=0;entryDy=0;entryPerimeter=0;" parent="1" source="jU4diwvXnVPjl-JNsbiU-61" target="P8g3ugf__SappCPVDkcM-5" edge="1">
          <mxGeometry relative="1" as="geometry">
            <mxPoint x="60" y="309.76" as="targetPoint" />
            <Array as="points">
              <mxPoint x="70" y="310" />
            </Array>
          </mxGeometry>
        </mxCell>
        <mxCell id="jU4diwvXnVPjl-JNsbiU-76" style="edgeStyle=orthogonalEdgeStyle;rounded=0;orthogonalLoop=1;jettySize=auto;html=1;entryX=0;entryY=0.5;entryDx=0;entryDy=0;" parent="1" source="jU4diwvXnVPjl-JNsbiU-61" target="jU4diwvXnVPjl-JNsbiU-52" edge="1">
          <mxGeometry relative="1" as="geometry">
            <mxPoint x="280" y="30" as="targetPoint" />
            <Array as="points">
              <mxPoint x="240" y="310" />
              <mxPoint x="240" y="30" />
            </Array>
          </mxGeometry>
        </mxCell>
        <mxCell id="jU4diwvXnVPjl-JNsbiU-61" value="" style="shape=cylinder3;whiteSpace=wrap;html=1;boundedLbl=1;backgroundOutline=1;size=15;rotation=-90;" parent="1" vertex="1">
          <mxGeometry x="441.99" y="160" width="30" height="299.52" as="geometry" />
        </mxCell>
        <mxCell id="jU4diwvXnVPjl-JNsbiU-64" value="&lt;font style=&quot;font-size: 12px;&quot;&gt;Message Queue&lt;font&gt;&lt;br&gt;&lt;/font&gt;&lt;/font&gt;" style="text;strokeColor=none;fillColor=none;html=1;fontSize=24;fontStyle=1;verticalAlign=middle;align=center;" parent="1" vertex="1">
          <mxGeometry x="406.99" y="288.76" width="100" height="40" as="geometry" />
        </mxCell>
        <mxCell id="jU4diwvXnVPjl-JNsbiU-66" value="&lt;div&gt;&lt;font style=&quot;font-size: 9px;&quot;&gt;Data limit notification for the mobile user&lt;/font&gt;&lt;/div&gt;" style="text;strokeColor=none;fillColor=none;html=1;fontSize=24;fontStyle=1;verticalAlign=middle;align=center;" parent="1" vertex="1">
          <mxGeometry x="960" y="300" width="300" height="50" as="geometry" />
        </mxCell>
        <mxCell id="jU4diwvXnVPjl-JNsbiU-68" value="&lt;div&gt;&lt;font style=&quot;font-size: 9px;&quot;&gt;Periodic stats for the BackOffice user&lt;font&gt;&lt;br&gt;&lt;/font&gt;&lt;/font&gt;&lt;/div&gt;" style="text;strokeColor=none;fillColor=none;html=1;fontSize=24;fontStyle=0;verticalAlign=middle;align=center;" parent="1" vertex="1">
          <mxGeometry x="960" y="310" width="300" height="50" as="geometry" />
        </mxCell>
        <mxCell id="jU4diwvXnVPjl-JNsbiU-71" value="&lt;div&gt;&lt;font style=&quot;font-size: 9px;&quot;&gt;Response to the user authorization request&lt;font&gt;&lt;font&gt;&lt;br&gt;&lt;/font&gt;&lt;/font&gt;&lt;/font&gt;&lt;/div&gt;&lt;div&gt;&lt;font style=&quot;font-size: 9px;&quot;&gt;&lt;font&gt;&lt;font&gt;Response to stats request from BackOffice user&lt;br&gt;&lt;/font&gt;&lt;/font&gt;&lt;/font&gt;&lt;/div&gt;" style="text;strokeColor=none;fillColor=none;html=1;fontSize=24;fontStyle=0;verticalAlign=middle;align=center;rotation=0;" parent="1" vertex="1">
          <mxGeometry x="886" y="258.76" width="140" height="30" as="geometry" />
        </mxCell>
        <mxCell id="jU4diwvXnVPjl-JNsbiU-74" style="edgeStyle=orthogonalEdgeStyle;rounded=0;orthogonalLoop=1;jettySize=auto;html=1;entryX=0.835;entryY=0.005;entryDx=0;entryDy=0;entryPerimeter=0;" parent="1" target="jU4diwvXnVPjl-JNsbiU-17" edge="1">
          <mxGeometry relative="1" as="geometry">
            <mxPoint x="900.86" y="60" as="sourcePoint" />
            <mxPoint x="580" y="80" as="targetPoint" />
            <Array as="points">
              <mxPoint x="935" y="60" />
              <mxPoint x="935" y="90" />
              <mxPoint x="581" y="90" />
            </Array>
          </mxGeometry>
        </mxCell>
        <mxCell id="jU4diwvXnVPjl-JNsbiU-91" style="edgeStyle=orthogonalEdgeStyle;rounded=0;orthogonalLoop=1;jettySize=auto;html=1;entryX=0.5;entryY=0;entryDx=0;entryDy=0;" parent="1" source="jU4diwvXnVPjl-JNsbiU-73" target="jU4diwvXnVPjl-JNsbiU-28" edge="1">
          <mxGeometry relative="1" as="geometry">
            <Array as="points">
              <mxPoint x="935" y="110" />
              <mxPoint x="1125" y="110" />
            </Array>
          </mxGeometry>
        </mxCell>
        <mxCell id="jU4diwvXnVPjl-JNsbiU-92" style="edgeStyle=orthogonalEdgeStyle;rounded=0;orthogonalLoop=1;jettySize=auto;html=1;" parent="1" source="fTc552RHnCqsJCtwMoLn-5" target="jU4diwvXnVPjl-JNsbiU-48" edge="1">
          <mxGeometry relative="1" as="geometry">
            <mxPoint x="969.96" y="180" as="targetPoint" />
            <mxPoint x="1010" y="60" as="sourcePoint" />
            <Array as="points">
              <mxPoint x="970" y="60" />
            </Array>
          </mxGeometry>
        </mxCell>
        <mxCell id="jU4diwvXnVPjl-JNsbiU-98" style="edgeStyle=orthogonalEdgeStyle;rounded=0;orthogonalLoop=1;jettySize=auto;html=1;entryX=0.066;entryY=0.781;entryDx=0;entryDy=0;entryPerimeter=0;" parent="1" source="jU4diwvXnVPjl-JNsbiU-81" target="jU4diwvXnVPjl-JNsbiU-61" edge="1">
          <mxGeometry relative="1" as="geometry">
            <mxPoint x="540" y="330" as="targetPoint" />
            <mxPoint x="962.5" y="80" as="sourcePoint" />
            <Array as="points">
              <mxPoint x="935" y="90" />
              <mxPoint x="1390" y="90" />
              <mxPoint x="1390" y="400" />
              <mxPoint x="541" y="400" />
            </Array>
          </mxGeometry>
        </mxCell>
        <mxCell id="jU4diwvXnVPjl-JNsbiU-73" value="&lt;b&gt;&lt;font style=&quot;font-size: 9px;&quot;&gt;System Manager&lt;font&gt;&lt;font&gt;&lt;br&gt;&lt;/font&gt;&lt;/font&gt;&lt;/font&gt;&lt;/b&gt;" style="rounded=0;whiteSpace=wrap;html=1;fillColor=#FF8000;" parent="1" vertex="1">
          <mxGeometry x="880" y="40" width="110" height="20" as="geometry" />
        </mxCell>
        <mxCell id="jU4diwvXnVPjl-JNsbiU-77" value="&lt;b&gt;&lt;font style=&quot;font-size: 9px;&quot;&gt;Log&lt;/font&gt;&lt;/b&gt;" style="whiteSpace=wrap;html=1;shape=mxgraph.basic.document" parent="1" vertex="1">
          <mxGeometry x="1060" y="35" width="30" height="30" as="geometry" />
        </mxCell>
        <mxCell id="jU4diwvXnVPjl-JNsbiU-79" style="edgeStyle=orthogonalEdgeStyle;rounded=0;orthogonalLoop=1;jettySize=auto;html=1;" parent="1" source="jU4diwvXnVPjl-JNsbiU-78" target="jU4diwvXnVPjl-JNsbiU-73" edge="1">
          <mxGeometry relative="1" as="geometry" />
        </mxCell>
        <mxCell id="jU4diwvXnVPjl-JNsbiU-78" value="&lt;b&gt;&lt;font style=&quot;font-size: 9px;&quot;&gt;Config&lt;/font&gt;&lt;/b&gt;" style="whiteSpace=wrap;html=1;shape=mxgraph.basic.document" parent="1" vertex="1">
          <mxGeometry x="780" y="35" width="30" height="30" as="geometry" />
        </mxCell>
        <mxCell id="jU4diwvXnVPjl-JNsbiU-80" style="edgeStyle=orthogonalEdgeStyle;rounded=0;orthogonalLoop=1;jettySize=auto;html=1;entryX=0;entryY=0.5;entryDx=0;entryDy=0;entryPerimeter=0;" parent="1" source="jU4diwvXnVPjl-JNsbiU-73" target="jU4diwvXnVPjl-JNsbiU-77" edge="1">
          <mxGeometry relative="1" as="geometry" />
        </mxCell>
        <mxCell id="jU4diwvXnVPjl-JNsbiU-81" value="1" style="text;html=1;align=center;verticalAlign=middle;resizable=0;points=[];autosize=1;strokeColor=none;fillColor=none;" parent="1" vertex="1">
          <mxGeometry x="914" y="52" width="30" height="30" as="geometry" />
        </mxCell>
        <mxCell id="jU4diwvXnVPjl-JNsbiU-84" value="&lt;div&gt;&lt;font style=&quot;font-size: 9px;&quot;&gt;Request data service &lt;/font&gt;&lt;/div&gt;" style="text;strokeColor=none;fillColor=none;html=1;fontSize=24;fontStyle=1;verticalAlign=middle;align=center;rotation=0;" parent="1" vertex="1">
          <mxGeometry x="90" y="181.63" width="140" height="30" as="geometry" />
        </mxCell>
        <mxCell id="jU4diwvXnVPjl-JNsbiU-85" value="&lt;div&gt;&lt;font style=&quot;font-size: 9px;&quot;&gt;&lt;span style=&quot;font-weight: normal;&quot;&gt;Receive notifications about consumption&lt;/span&gt;&lt;br&gt;&lt;/font&gt;&lt;/div&gt;" style="text;strokeColor=none;fillColor=none;html=1;fontSize=24;fontStyle=1;verticalAlign=middle;align=center;rotation=0;" parent="1" vertex="1">
          <mxGeometry x="50" y="300" width="140" height="30" as="geometry" />
        </mxCell>
        <mxCell id="jU4diwvXnVPjl-JNsbiU-86" value="&lt;div&gt;&lt;font style=&quot;font-size: 9px;&quot;&gt;&lt;span style=&quot;font-weight: normal;&quot;&gt;Request asynchronous stats&lt;/span&gt;&lt;br&gt;&lt;/font&gt;&lt;/div&gt;" style="text;strokeColor=none;fillColor=none;html=1;fontSize=24;fontStyle=1;verticalAlign=middle;align=center;rotation=0;" parent="1" vertex="1">
          <mxGeometry x="313.99" y="45" width="140" height="30" as="geometry" />
        </mxCell>
        <mxCell id="jU4diwvXnVPjl-JNsbiU-87" value="&lt;div&gt;&lt;font style=&quot;font-size: 9px;&quot;&gt;Receive asynchronously requested or periodic data &lt;/font&gt;&lt;/div&gt;" style="text;strokeColor=none;fillColor=none;html=1;fontSize=24;fontStyle=0;verticalAlign=middle;align=center;rotation=0;" parent="1" vertex="1">
          <mxGeometry x="90" y="5" width="140" height="30" as="geometry" />
        </mxCell>
        <mxCell id="jU4diwvXnVPjl-JNsbiU-89" value="&lt;div&gt;&lt;font style=&quot;font-size: 9px;&quot;&gt;Create &lt;/font&gt;&lt;/div&gt;" style="text;strokeColor=none;fillColor=none;html=1;fontSize=24;fontStyle=0;verticalAlign=middle;align=center;rotation=0;" parent="1" vertex="1">
          <mxGeometry x="490" y="350" width="140" height="30" as="geometry" />
        </mxCell>
        <mxCell id="jU4diwvXnVPjl-JNsbiU-93" value="&lt;div&gt;&lt;font style=&quot;font-size: 9px;&quot;&gt;Create &lt;/font&gt;&lt;/div&gt;" style="text;strokeColor=none;fillColor=none;html=1;fontSize=24;fontStyle=0;verticalAlign=middle;align=center;rotation=0;" parent="1" vertex="1">
          <mxGeometry x="856" y="82" width="30" height="30" as="geometry" />
        </mxCell>
        <mxCell id="jU4diwvXnVPjl-JNsbiU-94" value="&lt;div&gt;&lt;font style=&quot;font-size: 9px;&quot;&gt;Create &lt;/font&gt;&lt;/div&gt;" style="text;strokeColor=none;fillColor=none;html=1;fontSize=24;fontStyle=0;verticalAlign=middle;align=center;rotation=0;" parent="1" vertex="1">
          <mxGeometry x="585" y="87.45" width="30" height="30" as="geometry" />
        </mxCell>
        <mxCell id="jU4diwvXnVPjl-JNsbiU-104" value="&lt;div&gt;&lt;font style=&quot;font-size: 9px;&quot;&gt;Create &lt;/font&gt;&lt;/div&gt;" style="text;strokeColor=none;fillColor=none;html=1;fontSize=24;fontStyle=0;verticalAlign=middle;align=center;rotation=0;" parent="1" vertex="1">
          <mxGeometry x="642" y="96.42" width="30" height="30" as="geometry" />
        </mxCell>
        <mxCell id="jU4diwvXnVPjl-JNsbiU-106" value="&lt;div&gt;&lt;font style=&quot;font-size: 9px;&quot;&gt;&lt;span style=&quot;font-weight: normal;&quot;&gt;Check user&#39;s data&lt;/span&gt;&lt;br&gt;&lt;/font&gt;&lt;/div&gt;" style="text;strokeColor=none;fillColor=none;html=1;fontSize=24;fontStyle=1;verticalAlign=middle;align=center;rotation=0;" parent="1" vertex="1">
          <mxGeometry x="1030" y="196.95" width="30" height="30" as="geometry" />
        </mxCell>
        <mxCell id="dbfNOSFVllEaUx88C3-K-11" style="edgeStyle=orthogonalEdgeStyle;rounded=0;orthogonalLoop=1;jettySize=auto;html=1;entryX=0.5;entryY=0;entryDx=0;entryDy=0;entryPerimeter=0;" parent="1" target="jU4diwvXnVPjl-JNsbiU-77" edge="1">
          <mxGeometry relative="1" as="geometry">
            <mxPoint x="570" y="-30" as="targetPoint" />
            <mxPoint x="330" y="180" as="sourcePoint" />
            <Array as="points">
              <mxPoint x="340" y="180" />
              <mxPoint x="340" y="110" />
              <mxPoint x="520" y="110" />
              <mxPoint x="520" y="-30" />
              <mxPoint x="1370" y="-30" />
              <mxPoint x="1370" y="20" />
              <mxPoint x="1075" y="20" />
            </Array>
          </mxGeometry>
        </mxCell>
        <mxCell id="jU4diwvXnVPjl-JNsbiU-108" value="&lt;div&gt;&lt;font style=&quot;font-size: 9px;&quot;&gt;&lt;span style=&quot;font-weight: normal;&quot;&gt;Read user input&lt;/span&gt;&lt;br&gt;&lt;/font&gt;&lt;/div&gt;" style="text;strokeColor=none;fillColor=none;html=1;fontSize=24;fontStyle=1;verticalAlign=middle;align=center;rotation=0;" parent="1" vertex="1">
          <mxGeometry x="252" y="188.75" width="140" height="30" as="geometry" />
        </mxCell>
        <mxCell id="jU4diwvXnVPjl-JNsbiU-109" value="&lt;div&gt;&lt;font style=&quot;font-size: 9px;&quot;&gt;&lt;span style=&quot;font-weight: normal;&quot;&gt;Send queue data &lt;/span&gt;&lt;/font&gt;&lt;/div&gt;" style="text;strokeColor=none;fillColor=none;html=1;fontSize=24;fontStyle=1;verticalAlign=middle;align=center;rotation=0;" parent="1" vertex="1">
          <mxGeometry x="539.05" y="199.75" width="108" height="24.39" as="geometry" />
        </mxCell>
        <mxCell id="jU4diwvXnVPjl-JNsbiU-111" value="&lt;div&gt;&lt;font style=&quot;font-size: 9px;&quot;&gt;&lt;span style=&quot;font-weight: normal;&quot;&gt;to authorization engines&lt;br&gt;&lt;/span&gt;&lt;/font&gt;&lt;/div&gt;" style="text;strokeColor=none;fillColor=none;html=1;fontSize=24;fontStyle=1;verticalAlign=middle;align=center;rotation=0;" parent="1" vertex="1">
          <mxGeometry x="522" y="204.63" width="140" height="30" as="geometry" />
        </mxCell>
        <mxCell id="jU4diwvXnVPjl-JNsbiU-112" value="&lt;div&gt;&lt;font style=&quot;font-size: 9px;&quot;&gt;&lt;span style=&quot;font-weight: normal;&quot;&gt;(prioritize video queue)&lt;br&gt;&lt;/span&gt;&lt;/font&gt;&lt;/div&gt;" style="text;strokeColor=none;fillColor=none;html=1;fontSize=24;fontStyle=1;verticalAlign=middle;align=center;rotation=0;" parent="1" vertex="1">
          <mxGeometry x="524" y="214.39" width="140" height="30" as="geometry" />
        </mxCell>
        <mxCell id="Jxll_ePt-7AtNXlNrAwI-100" value="&lt;div&gt;&lt;font style=&quot;font-size: 9px;&quot;&gt;Create &lt;/font&gt;&lt;/div&gt;" style="text;strokeColor=none;fillColor=none;html=1;fontSize=24;fontStyle=0;verticalAlign=middle;align=center;rotation=0;" parent="1" vertex="1">
          <mxGeometry x="940" y="82" width="30" height="30" as="geometry" />
        </mxCell>
        <mxCell id="fTc552RHnCqsJCtwMoLn-5" value="&lt;div&gt;&lt;font style=&quot;font-size: 9px;&quot;&gt;Every Process writes to Log &lt;/font&gt;&lt;/div&gt;" style="text;strokeColor=none;fillColor=none;html=1;fontSize=24;fontStyle=0;verticalAlign=middle;align=center;rotation=0;" parent="1" vertex="1">
          <mxGeometry x="1060" y="53" width="30" height="30" as="geometry" />
        </mxCell>
        <mxCell id="jCM-vO15EgA7j8KKuvOU-1" value="" style="whiteSpace=wrap;html=1;aspect=fixed;fillColor=#73FAFF;" parent="1" vertex="1">
          <mxGeometry x="76" y="440" width="20" height="20" as="geometry" />
        </mxCell>
        <mxCell id="jCM-vO15EgA7j8KKuvOU-5" value="" style="whiteSpace=wrap;html=1;aspect=fixed;fillColor=#FF8000;strokeColor=#000000;fontColor=#000000;" parent="1" vertex="1">
          <mxGeometry x="76" y="410" width="20" height="20" as="geometry" />
        </mxCell>
        <mxCell id="jCM-vO15EgA7j8KKuvOU-43" value="" style="rounded=0;whiteSpace=wrap;html=1;fillColor=#1F1F1F;" parent="1" vertex="1">
          <mxGeometry x="74" y="360" width="24" height="40.38" as="geometry" />
        </mxCell>
        <mxCell id="jCM-vO15EgA7j8KKuvOU-44" value="" style="dashed=0;labelPosition=right;align=left;shape=mxgraph.gmdl.radiobutton;strokeColor=#009587;fillColor=#009587;strokeWidth=2;aspect=fixed;sketch=0;html=1;" parent="1" vertex="1">
          <mxGeometry x="78" y="382.38" width="16" height="16" as="geometry" />
        </mxCell>
        <mxCell id="jCM-vO15EgA7j8KKuvOU-45" value="" style="dashed=0;labelPosition=right;align=left;shape=mxgraph.gmdl.radiobutton;strokeColor=#FF0000;fillColor=#FF0000;strokeWidth=2;aspect=fixed;sketch=0;html=1;" parent="1" vertex="1">
          <mxGeometry x="78" y="363.14" width="16" height="16" as="geometry" />
        </mxCell>
        <mxCell id="jCM-vO15EgA7j8KKuvOU-46" value="" style="endArrow=classic;html=1;rounded=0;" parent="1" edge="1">
          <mxGeometry width="50" height="50" relative="1" as="geometry">
            <mxPoint x="106" y="420" as="sourcePoint" />
            <mxPoint x="134" y="420" as="targetPoint" />
          </mxGeometry>
        </mxCell>
        <mxCell id="jCM-vO15EgA7j8KKuvOU-47" value="Process" style="text;html=1;align=center;verticalAlign=middle;resizable=0;points=[];autosize=1;strokeColor=none;fillColor=none;" parent="1" vertex="1">
          <mxGeometry x="129" y="405" width="70" height="30" as="geometry" />
        </mxCell>
        <mxCell id="jCM-vO15EgA7j8KKuvOU-48" value="" style="endArrow=classic;html=1;rounded=0;" parent="1" edge="1">
          <mxGeometry width="50" height="50" relative="1" as="geometry">
            <mxPoint x="106" y="449.9" as="sourcePoint" />
            <mxPoint x="134" y="449.9" as="targetPoint" />
          </mxGeometry>
        </mxCell>
        <mxCell id="jCM-vO15EgA7j8KKuvOU-49" value="Thread" style="text;html=1;align=center;verticalAlign=middle;resizable=0;points=[];autosize=1;strokeColor=none;fillColor=none;" parent="1" vertex="1">
          <mxGeometry x="130" y="435" width="60" height="30" as="geometry" />
        </mxCell>
        <mxCell id="jCM-vO15EgA7j8KKuvOU-50" value="" style="endArrow=classic;html=1;rounded=0;" parent="1" edge="1">
          <mxGeometry width="50" height="50" relative="1" as="geometry">
            <mxPoint x="106" y="379.14" as="sourcePoint" />
            <mxPoint x="134" y="379.14" as="targetPoint" />
          </mxGeometry>
        </mxCell>
        <mxCell id="jCM-vO15EgA7j8KKuvOU-51" value="Semaphore" style="text;html=1;align=center;verticalAlign=middle;resizable=0;points=[];autosize=1;strokeColor=none;fillColor=none;" parent="1" vertex="1">
          <mxGeometry x="123" y="365.19" width="90" height="30" as="geometry" />
        </mxCell>
        <mxCell id="WA-7Djyi4mXW4e73ysLg-1" value="&lt;font style=&quot;font-size: 24px;&quot;&gt;*&lt;/font&gt;" style="text;html=1;align=center;verticalAlign=middle;resizable=0;points=[];autosize=1;strokeColor=none;fillColor=none;" parent="1" vertex="1">
          <mxGeometry x="71" y="464" width="30" height="40" as="geometry" />
        </mxCell>
        <mxCell id="WA-7Djyi4mXW4e73ysLg-3" value="" style="endArrow=classic;html=1;rounded=0;" parent="1" edge="1">
          <mxGeometry width="50" height="50" relative="1" as="geometry">
            <mxPoint x="105" y="474" as="sourcePoint" />
            <mxPoint x="135" y="474" as="targetPoint" />
          </mxGeometry>
        </mxCell>
        <mxCell id="WA-7Djyi4mXW4e73ysLg-4" value="1 or more" style="text;html=1;align=center;verticalAlign=middle;resizable=0;points=[];autosize=1;strokeColor=none;fillColor=none;" parent="1" vertex="1">
          <mxGeometry x="132" y="460" width="70" height="30" as="geometry" />
        </mxCell>
        <mxCell id="dbfNOSFVllEaUx88C3-K-7" value="" style="rounded=0;whiteSpace=wrap;html=1;fillColor=#1F1F1F;" parent="1" vertex="1">
          <mxGeometry x="645" y="135.13" width="17" height="32.33" as="geometry" />
        </mxCell>
        <mxCell id="dbfNOSFVllEaUx88C3-K-8" value="" style="dashed=0;labelPosition=right;align=left;shape=mxgraph.gmdl.radiobutton;strokeColor=#FF0000;fillColor=#FF0000;strokeWidth=2;aspect=fixed;sketch=0;html=1;" parent="1" vertex="1">
          <mxGeometry x="647.96" y="137.84" width="11.09" height="11.09" as="geometry" />
        </mxCell>
        <mxCell id="dbfNOSFVllEaUx88C3-K-9" value="" style="dashed=0;labelPosition=right;align=left;shape=mxgraph.gmdl.radiobutton;strokeColor=#009587;fillColor=#009587;strokeWidth=2;aspect=fixed;sketch=0;html=1;" parent="1" vertex="1">
          <mxGeometry x="647.97" y="152.66" width="11.09" height="11.09" as="geometry" />
        </mxCell>
        <mxCell id="dbfNOSFVllEaUx88C3-K-13" style="edgeStyle=orthogonalEdgeStyle;rounded=0;orthogonalLoop=1;jettySize=auto;html=1;entryX=1;entryY=0.5;entryDx=0;entryDy=0;entryPerimeter=0;" parent="1" target="jU4diwvXnVPjl-JNsbiU-77" edge="1">
          <mxGeometry relative="1" as="geometry">
            <Array as="points">
              <mxPoint x="1400" y="190" />
              <mxPoint x="1400" y="50" />
            </Array>
            <mxPoint x="1340" y="190" as="sourcePoint" />
          </mxGeometry>
        </mxCell>
        <mxCell id="wo505oq4jTNtcLupM2g--2" value="&lt;b&gt;&lt;font style=&quot;font-size: 9px;&quot;&gt;Monitor engine&lt;font&gt;&lt;br&gt;&lt;/font&gt;&lt;/font&gt;&lt;/b&gt;" style="rounded=0;whiteSpace=wrap;html=1;fillColor=#FF8000;" parent="1" vertex="1">
          <mxGeometry x="1230" y="178.12" width="110" height="21.63" as="geometry" />
        </mxCell>
        <mxCell id="wo505oq4jTNtcLupM2g--18" value="1" style="text;html=1;align=center;verticalAlign=middle;resizable=0;points=[];autosize=1;strokeColor=none;fillColor=none;" parent="1" vertex="1">
          <mxGeometry x="1087" y="258.76" width="30" height="30" as="geometry" />
        </mxCell>
        <mxCell id="wo505oq4jTNtcLupM2g--46" value="" style="rounded=0;whiteSpace=wrap;html=1;fillColor=#1F1F1F;" parent="1" vertex="1">
          <mxGeometry x="1180" y="150" width="24" height="40.38" as="geometry" />
        </mxCell>
        <mxCell id="wo505oq4jTNtcLupM2g--47" value="" style="dashed=0;labelPosition=right;align=left;shape=mxgraph.gmdl.radiobutton;strokeColor=#009587;fillColor=#009587;strokeWidth=2;aspect=fixed;sketch=0;html=1;" parent="1" vertex="1">
          <mxGeometry x="1184" y="172.38" width="16" height="16" as="geometry" />
        </mxCell>
        <mxCell id="wo505oq4jTNtcLupM2g--48" value="" style="dashed=0;labelPosition=right;align=left;shape=mxgraph.gmdl.radiobutton;strokeColor=#FF0000;fillColor=#FF0000;strokeWidth=2;aspect=fixed;sketch=0;html=1;" parent="1" vertex="1">
          <mxGeometry x="1184" y="153.14" width="16" height="16" as="geometry" />
        </mxCell>
        <mxCell id="wo505oq4jTNtcLupM2g--67" value="" style="rounded=0;whiteSpace=wrap;html=1;fillColor=#1F1F1F;" parent="1" vertex="1">
          <mxGeometry x="1046" y="147.08" width="24" height="40.38" as="geometry" />
        </mxCell>
        <mxCell id="wo505oq4jTNtcLupM2g--68" value="" style="dashed=0;labelPosition=right;align=left;shape=mxgraph.gmdl.radiobutton;strokeColor=#009587;fillColor=#009587;strokeWidth=2;aspect=fixed;sketch=0;html=1;" parent="1" vertex="1">
          <mxGeometry x="1050" y="169.46" width="16" height="16" as="geometry" />
        </mxCell>
        <mxCell id="wo505oq4jTNtcLupM2g--69" value="" style="dashed=0;labelPosition=right;align=left;shape=mxgraph.gmdl.radiobutton;strokeColor=#FF0000;fillColor=#FF0000;strokeWidth=2;aspect=fixed;sketch=0;html=1;" parent="1" vertex="1">
          <mxGeometry x="1050" y="150.22" width="16" height="16" as="geometry" />
        </mxCell>
        <mxCell id="hxlqznGmigR07-VnnOmS-7" style="edgeStyle=orthogonalEdgeStyle;rounded=0;orthogonalLoop=1;jettySize=auto;html=1;entryX=1;entryY=0.5;entryDx=0;entryDy=0;" parent="1" source="jU4diwvXnVPjl-JNsbiU-48" target="wo505oq4jTNtcLupM2g--77" edge="1">
          <mxGeometry relative="1" as="geometry">
            <mxPoint x="800" y="280" as="targetPoint" />
            <Array as="points">
              <mxPoint x="955" y="230" />
              <mxPoint x="810" y="230" />
              <mxPoint x="810" y="268" />
            </Array>
          </mxGeometry>
        </mxCell>
        <mxCell id="jU4diwvXnVPjl-JNsbiU-48" value="&lt;b&gt;&lt;font style=&quot;font-size: 9px;&quot;&gt;Authorization Engine&lt;br&gt;&lt;/font&gt;&lt;/b&gt;" style="rounded=0;whiteSpace=wrap;html=1;fillColor=#FF8000;" parent="1" vertex="1">
          <mxGeometry x="900" y="181.63" width="110" height="20" as="geometry" />
        </mxCell>
        <mxCell id="wo505oq4jTNtcLupM2g--77" value="&lt;div&gt;&lt;b style=&quot;background-color: initial;&quot;&gt;&lt;font style=&quot;font-size: 10px;&quot;&gt;AUXILIAR SHARED&lt;/font&gt;&lt;/b&gt;&lt;/div&gt;&lt;div&gt;&lt;b style=&quot;background-color: initial;&quot;&gt;&lt;font style=&quot;font-size: 11px;&quot;&gt;MEMORY&lt;/font&gt;&lt;/b&gt;&lt;br&gt;&lt;/div&gt;" style="shape=datastore;whiteSpace=wrap;html=1;" parent="1" vertex="1">
          <mxGeometry x="710" y="221.63" width="70" height="92.55" as="geometry" />
        </mxCell>
        <mxCell id="wo505oq4jTNtcLupM2g--88" value="" style="sketch=0;aspect=fixed;pointerEvents=1;shadow=0;dashed=0;html=1;strokeColor=none;labelPosition=center;verticalLabelPosition=bottom;verticalAlign=top;align=center;fillColor=#005073;shape=mxgraph.mscae.enterprise.lock" parent="1" vertex="1">
          <mxGeometry x="76" y="490" width="20.28" height="26" as="geometry" />
        </mxCell>
        <mxCell id="wo505oq4jTNtcLupM2g--94" style="edgeStyle=orthogonalEdgeStyle;rounded=0;orthogonalLoop=1;jettySize=auto;html=1;exitX=1.007;exitY=0.426;exitDx=0;exitDy=0;exitPerimeter=0;" parent="1" source="jU4diwvXnVPjl-JNsbiU-48" edge="1">
          <mxGeometry relative="1" as="geometry">
            <mxPoint x="1060" y="190" as="sourcePoint" />
            <mxPoint x="1080" y="190" as="targetPoint" />
            <Array as="points">
              <mxPoint x="1060" y="190" />
            </Array>
          </mxGeometry>
        </mxCell>
        <mxCell id="hxlqznGmigR07-VnnOmS-2" value="" style="endArrow=classic;html=1;rounded=0;" parent="1" edge="1">
          <mxGeometry width="50" height="50" relative="1" as="geometry">
            <mxPoint x="106" y="504" as="sourcePoint" />
            <mxPoint x="134" y="504" as="targetPoint" />
          </mxGeometry>
        </mxCell>
        <mxCell id="hxlqznGmigR07-VnnOmS-4" value="Mutex" style="text;html=1;align=center;verticalAlign=middle;resizable=0;points=[];autosize=1;strokeColor=none;fillColor=none;" parent="1" vertex="1">
          <mxGeometry x="128" y="490" width="60" height="30" as="geometry" />
        </mxCell>
        <mxCell id="hxlqznGmigR07-VnnOmS-5" value="" style="sketch=0;aspect=fixed;pointerEvents=1;shadow=0;dashed=0;html=1;strokeColor=none;labelPosition=center;verticalLabelPosition=bottom;verticalAlign=top;align=center;fillColor=#005073;shape=mxgraph.mscae.enterprise.lock" parent="1" vertex="1">
          <mxGeometry x="1047.8600000000001" y="4.999999999999972" width="20.28" height="26" as="geometry" />
        </mxCell>
        <mxCell id="hxlqznGmigR07-VnnOmS-6" value="" style="sketch=0;aspect=fixed;pointerEvents=1;shadow=0;dashed=0;html=1;strokeColor=none;labelPosition=center;verticalLabelPosition=bottom;verticalAlign=top;align=center;fillColor=#005073;shape=mxgraph.mscae.enterprise.lock" parent="1" vertex="1">
          <mxGeometry x="360.0000000000001" y="143.45999999999998" width="20.28" height="26" as="geometry" />
        </mxCell>
        <mxCell id="hxlqznGmigR07-VnnOmS-13" value="&lt;div style=&quot;font-size: 10px;&quot;&gt;&lt;font style=&quot;font-size: 10px;&quot;&gt;Counts number of&lt;/font&gt;&lt;/div&gt;&lt;div style=&quot;font-size: 10px;&quot;&gt;&lt;font style=&quot;font-size: 10px;&quot;&gt;Available Auth Engines&lt;/font&gt;&lt;br&gt;&lt;/div&gt;" style="text;html=1;align=center;verticalAlign=middle;resizable=0;points=[];autosize=1;strokeColor=none;fillColor=none;" parent="1" vertex="1">
          <mxGeometry x="638" y="148.07999999999998" width="130" height="40" as="geometry" />
        </mxCell>
        <mxCell id="hxlqznGmigR07-VnnOmS-14" value="" style="edgeStyle=none;html=1;strokeColor=#808080;endArrow=block;endSize=10;dashed=0;verticalAlign=bottom;strokeWidth=2;rounded=0;entryX=0;entryY=0.5;entryDx=0;entryDy=0;" parent="1" target="jU4diwvXnVPjl-JNsbiU-48" edge="1">
          <mxGeometry width="160" relative="1" as="geometry">
            <mxPoint x="630" y="190" as="sourcePoint" />
            <mxPoint x="800" y="266.42" as="targetPoint" />
          </mxGeometry>
        </mxCell>
        <mxCell id="hxlqznGmigR07-VnnOmS-15" value="UNNAMED PIPES" style="edgeLabel;html=1;align=center;verticalAlign=middle;resizable=0;points=[];" parent="hxlqznGmigR07-VnnOmS-14" vertex="1" connectable="0">
          <mxGeometry x="-0.1631" relative="1" as="geometry">
            <mxPoint as="offset" />
          </mxGeometry>
        </mxCell>
        <mxCell id="hxlqznGmigR07-VnnOmS-17" value="&lt;div&gt;&lt;font style=&quot;font-size: 9px;&quot;&gt;&lt;span style=&quot;font-weight: normal;&quot;&gt;Check user&#39;s data&lt;/span&gt;&lt;br&gt;&lt;/font&gt;&lt;/div&gt;" style="text;strokeColor=none;fillColor=none;html=1;fontSize=24;fontStyle=1;verticalAlign=middle;align=center;rotation=0;" parent="1" vertex="1">
          <mxGeometry x="1200" y="196.95" width="30" height="30" as="geometry" />
        </mxCell>
        <mxCell id="aApTCnK2YvH23Sa1szAx-6" value="" style="shape=mxgraph.signs.transportation.lighthouse_2;html=1;pointerEvents=1;fillColor=#000000;strokeColor=none;verticalLabelPosition=bottom;verticalAlign=top;align=center;" vertex="1" parent="1">
          <mxGeometry x="1275" y="150.22" width="25" height="27.3" as="geometry" />
        </mxCell>
        <mxCell id="aApTCnK2YvH23Sa1szAx-7" value="" style="shape=mxgraph.signs.transportation.lighthouse_2;html=1;pointerEvents=1;fillColor=#000000;strokeColor=none;verticalLabelPosition=bottom;verticalAlign=top;align=center;" vertex="1" parent="1">
          <mxGeometry x="74.14" y="524" width="24" height="26" as="geometry" />
        </mxCell>
        <mxCell id="aApTCnK2YvH23Sa1szAx-8" value="" style="endArrow=classic;html=1;rounded=0;" edge="1" parent="1">
          <mxGeometry width="50" height="50" relative="1" as="geometry">
            <mxPoint x="106" y="536.9" as="sourcePoint" />
            <mxPoint x="134" y="536.9" as="targetPoint" />
          </mxGeometry>
        </mxCell>
        <mxCell id="aApTCnK2YvH23Sa1szAx-9" value="Condition Variable" style="text;html=1;align=center;verticalAlign=middle;resizable=0;points=[];autosize=1;strokeColor=none;fillColor=none;" vertex="1" parent="1">
          <mxGeometry x="130" y="522" width="120" height="30" as="geometry" />
        </mxCell>
      </root>
    </mxGraphModel>
  </diagram>
</mxfile>
